<?xml version="1.0" encoding="UTF-8" standalone="no"?>
<!-- Created with Inkscape (http://www.inkscape.org/) -->

<svg
   width="13.850365mm"
   height="13.354202mm"
   viewBox="0 0 13.850365 13.354202"
   version="1.1"
   id="svg5"
   xml:space="preserve"
   inkscape:version="1.2.2 (732a01da63, 2022-12-09)"
   sodipodi:docname="drawing.svg"
   xmlns:inkscape="http://www.inkscape.org/namespaces/inkscape"
   xmlns:sodipodi="http://sodipodi.sourceforge.net/DTD/sodipodi-0.dtd"
   xmlns="http://www.w3.org/2000/svg"
   xmlns:svg="http://www.w3.org/2000/svg"><sodipodi:namedview
     id="namedview7"
     pagecolor="#ffffff"
     bordercolor="#000000"
     borderopacity="0.25"
     inkscape:showpageshadow="2"
     inkscape:pageopacity="0.0"
     inkscape:pagecheckerboard="0"
     inkscape:deskcolor="#d1d1d1"
     inkscape:document-units="mm"
     showgrid="false"
     inkscape:zoom="6.7277216"
     inkscape:cx="456.24658"
     inkscape:cy="321.43125"
     inkscape:window-width="1440"
     inkscape:window-height="830"
     inkscape:window-x="-6"
     inkscape:window-y="-5"
     inkscape:window-maximized="1"
     inkscape:current-layer="layer1" /><defs
     id="defs2" /><g
     inkscape:label="Layer 1"
     inkscape:groupmode="layer"
     id="layer1"
     transform="translate(-113.60646,-76.125097)"><path
       id="path102442"
       style="fill:#3dd9eb;fill-opacity:1;stroke-width:0.0846667"
       d="m 124.96498,77.866509 c -0.65032,-0.0012 -1.33745,0.07162 -1.82624,0.227376 -0.69452,0.221308 -1.30436,0.605401 -1.52859,0.962732 -0.24377,0.388463 -0.16891,0.895745 0.20877,1.41025 0.36346,0.495126 0.76478,0.780125 2.02055,1.435055 1.72385,0.899048 2.6418,1.580571 3.15175,2.340942 0.13969,0.208302 0.27679,0.379855 0.30489,0.380855 0.0791,0.0029 0.16071,-1.183102 0.16071,-2.336291 0,-1.929773 -0.28287,-3.653462 -0.66663,-4.065385 -0.21411,-0.229826 -0.98908,-0.353979 -1.82521,-0.355534 z m -1.31051,1.111043 c 0.11633,-8.56e-4 0.23094,0.01875 0.33538,0.06201 0.48297,0.200056 0.55368,0.630931 0.15813,0.963766 -0.49624,0.417554 -1.43247,0.194702 -1.43247,-0.341065 0,-0.369943 0.48259,-0.681353 0.93896,-0.684713 z" /><path
       style="fill:#3dd9eb;fill-opacity:1;stroke-width:0.0846667"
       d="m 117.8047,87.425972 c -0.83685,-0.263006 -2.08877,-1.078379 -2.75813,-1.796373 -0.55896,-0.599572 -1.30587,-1.736304 -1.30587,-1.987428 0,-0.07989 2.98281,0.02432 3.97934,0.139031 3.09577,0.356338 5.334,1.329849 5.334,2.320007 0,0.531621 -0.74368,1.029876 -1.89748,1.271281 -0.60575,0.126741 -2.99733,0.1649 -3.35186,0.05348 z"
       id="path102399" /><path
       id="path102433"
       style="fill:#615dff;fill-opacity:1;stroke-width:0.0846667"
       d="m 123.75627,79.043698 c -0.0571,0.0011 -0.12362,0.0062 -0.20412,0.01395 -0.82143,0.07893 -1.04244,0.82471 -0.32866,1.108976 0.27336,0.108869 0.71972,-0.02303 0.95239,-0.28112 0.28694,-0.318352 0.28847,-0.377122 0.015,-0.650606 -0.149,-0.149004 -0.23065,-0.195006 -0.4346,-0.191203 z m 0.16743,0.236678 c 0.0964,-0.0025 0.19505,0.03026 0.27079,0.103353 0.15636,0.150894 0.1578,0.169834 0.0238,0.303858 -0.27458,0.274579 -0.74795,0.134134 -0.62529,-0.185519 0.0534,-0.139075 0.1898,-0.218096 0.33073,-0.221692 z" /><path
       style="fill:#615dff;fill-opacity:1;stroke-width:0.0846667"
       d="m 122.5037,89.436511 c -0.18626,-0.03504 -0.47201,-0.08618 -0.635,-0.113646 -0.40133,-0.06763 -1.11879,-0.298017 -1.24883,-0.401025 -0.0582,-0.04611 -0.10583,-0.05545 -0.10583,-0.02076 0,0.03469 -0.0476,0.02354 -0.10584,-0.02477 -0.0582,-0.04831 -0.12488,-0.08904 -0.14816,-0.09052 -0.0233,-0.0015 -0.31628,-0.123678 -0.65109,-0.271562 -0.87384,-0.385967 -0.85712,-0.478714 0.0867,-0.48075 0.9855,-0.0021 1.63095,-0.08539 2.12854,-0.274566 0.13811,-0.05251 0.21388,-0.05206 0.21388,0.0013 0,0.04541 0.0403,0.08257 0.0897,0.08257 0.0493,0 0.067,-0.03674 0.0392,-0.08165 -0.0278,-0.04491 0.13192,-0.175883 0.35484,-0.291054 0.46207,-0.238736 0.87096,-0.575176 0.87096,-0.716643 0,-0.05279 0.0381,-0.09598 0.0847,-0.09598 0.0466,0 0.0769,-0.02857 0.0675,-0.0635 -0.009,-0.03493 0.0107,-0.203048 0.0448,-0.373608 0.0502,-0.251622 0.0192,-0.38735 -0.1647,-0.719666 -0.12464,-0.225258 -0.26862,-0.434797 -0.31995,-0.465643 -0.0513,-0.03084 -0.18358,-0.134488 -0.29388,-0.230319 -0.11031,-0.09583 -0.27224,-0.196986 -0.35984,-0.224789 -0.0876,-0.0278 -0.15927,-0.09244 -0.15927,-0.143625 0,-0.05119 -0.0255,-0.06759 -0.0566,-0.03644 -0.0311,0.03115 -0.11688,0.0066 -0.1905,-0.05463 -0.0736,-0.06119 -0.45772,-0.2173 -0.85354,-0.346903 -0.39582,-0.129604 -0.77682,-0.257901 -0.84667,-0.285105 -0.0699,-0.0272 -0.18839,-0.05623 -0.26343,-0.06449 -0.075,-0.0083 -0.24649,-0.04653 -0.381,-0.08503 -0.13451,-0.0385 -0.30172,-0.07903 -0.37157,-0.09006 -0.56464,-0.08921 -0.78346,-0.118106 -1.22766,-0.162108 -0.2794,-0.02768 -0.6985,-0.08082 -0.93134,-0.118089 -0.23283,-0.03727 -1.10843,-0.07643 -1.94578,-0.087 -0.83735,-0.01058 -1.55662,-0.04035 -1.59837,-0.06616 -0.0418,-0.02581 -0.0131,-0.08209 0.0637,-0.125075 0.0768,-0.04299 0.11755,-0.113913 0.0905,-0.157617 -0.027,-0.0437 -0.009,-0.07946 0.0406,-0.07946 0.0493,0 0.0897,-0.05307 0.0897,-0.117942 0,-0.06487 0.0571,-0.139872 0.127,-0.166676 0.0699,-0.0268 0.12761,-0.09755 0.12835,-0.157225 7.4e-4,-0.05967 0.11504,-0.237479 0.254,-0.39513 0.13896,-0.157652 0.25265,-0.312881 0.25265,-0.344953 0,-0.03207 0.15176,-0.207884 0.33724,-0.390694 0.18548,-0.182809 0.33788,-0.370454 0.33867,-0.416988 7.8e-4,-0.04653 0.11531,-0.198934 0.25451,-0.338666 0.1392,-0.139733 0.60007,-0.606485 1.02416,-1.037226 0.42408,-0.430742 0.78937,-0.783167 0.81175,-0.783167 0.0224,0 0.14589,-0.104775 0.27447,-0.232833 0.12858,-0.128059 0.33942,-0.309034 0.46854,-0.402167 0.12911,-0.09313 0.28768,-0.21968 0.35237,-0.281214 0.0647,-0.06153 0.11883,-0.08058 0.12031,-0.04233 0.001,0.03825 0.0491,0.0109 0.10583,-0.06077 0.21759,-0.274926 1.50015,-0.942156 1.50015,-0.780426 0,0.02976 0.0559,-0.01985 0.1243,-0.110237 0.0684,-0.09039 0.12552,-0.137718 0.127,-0.10517 10e-4,0.03255 0.14349,3.56e-4 0.31557,-0.07155 0.31844,-0.133056 0.4323,-0.165877 0.95713,-0.275911 0.39744,-0.08333 1.70111,-0.03448 2.14254,0.08027 0.56655,0.147285 0.90546,0.279039 0.90546,0.352012 0,0.03721 0.0308,0.05813 0.0684,0.04649 0.0997,-0.03085 0.86351,0.402469 1.1593,0.657653 0.17773,0.153329 0.19867,0.192473 0.0697,0.130355 -0.17679,-0.08518 -2.26299,-0.07265 -2.73675,0.01644 -0.33696,0.06337 -1.24384,0.45656 -1.5409,0.668083 -0.42496,0.3026 -0.72781,0.675847 -0.86217,1.062563 -0.10728,0.308809 -0.10759,0.407161 -0.002,0.756889 0.0665,0.221077 0.17864,0.489984 0.24914,0.597571 0.0705,0.107586 0.11325,0.195611 0.095,0.195611 -0.0182,0 0.13831,0.17145 0.34786,0.381 0.20955,0.20955 0.39758,0.381 0.41784,0.381 0.0203,0 0.15813,0.09248 0.30636,0.205518 0.14823,0.113035 0.50764,0.323645 0.79868,0.468023 0.29105,0.144378 0.52917,0.298349 0.52917,0.342158 0,0.04381 0.0477,0.06136 0.10594,0.039 0.1381,-0.053 1.43781,0.707515 1.37708,0.805782 -0.0256,0.04133 -0.002,0.10272 0.0527,0.136415 0.0619,0.03826 0.0764,0.02457 0.0387,-0.03648 -0.0332,-0.05376 -0.0201,-0.09775 0.0293,-0.09775 0.0493,0 0.0897,0.0594 0.0897,0.131997 0,0.0726 0.0378,0.108616 0.0841,0.08004 0.11915,-0.07363 0.95519,0.782495 0.88114,0.90231 -0.0348,0.05635 -0.0229,0.07418 0.0285,0.04246 0.0884,-0.05461 0.41549,0.352784 0.37984,0.473025 -0.0104,0.03492 0.0178,0.0635 0.0626,0.0635 0.0448,0 0.12256,0.161925 0.17287,0.359834 0.0503,0.197908 0.12505,0.436033 0.16609,0.529166 0.0707,0.160483 0.0604,1.09184 -0.0158,1.424938 -0.0195,0.08521 -0.0899,0.189407 -0.15649,0.231537 -0.10346,0.06547 -0.10259,0.07697 0.006,0.07919 0.0763,0.0016 0.0925,0.02741 0.0406,0.0648 -0.0475,0.03421 -0.1334,0.169127 -0.19086,0.299812 -0.0633,0.143958 -0.14285,0.213885 -0.20186,0.177418 -0.0549,-0.03392 -0.0745,-0.0232 -0.045,0.02458 0.0641,0.103752 -0.42412,0.618728 -0.5866,0.618728 -0.0643,0 -0.11696,0.03536 -0.11696,0.07858 0,0.09037 -0.84984,0.423864 -1.22754,0.481703 -0.46419,0.07108 -1.85771,0.08215 -2.20146,0.01748 z"
       id="path102401" /></g><style
     id="style101671">
		.s0 { fill: #615dff } 
		.s1 { mix-blend-mode: multiply;fill: #3dd9eb } 
	</style></svg>
